# xmcd CD database file
#
# Track frame offsets:
#	150
#	12200
#	25015
#	40311
#	51232
#	65746
#	77134
#	93172
#	108845
#	121976
#	134824
#	147135
#	161106
#	176360
#	193095
#
# Disc length: 2799 seconds
#
# Revision: 2
# Processed by: cddbd v1.4b41PL1 Copyright (c) Steve Scherf et al.
# Submitted via: Feurio! 1.52 - http://www.feurio.com
#
DISCID=cc0aed0f
DTITLE=Emmylou Harris with Carl Jackson - Nashville Duets
DYEAR=1900
DGENRE=
TTITLE0=Walking Through This World With Me
TTITLE1=Something Draws Me To You
TTITLE2=When My Blue Moon Turns To Gold Again
TTITLE3=I Take The Chance
TTITLE4=I've Always Needed You
TTITLE5=We Must Have been Out Of Our Minds
TTITLE6=She's Gone, Gone, Gone
TTITLE7=To Keep Your Memory Green
TTITLE8=Under Your Spell Again
TTITLE9=I'll Never Love Another
TTITLE10=You Made A Memory Of Me
TTITLE11=Befor I Met You
TTITLE12=Dying In Sorrows Wine
TTITLE13=The Best We Could Do
TTITLE14=Nobody's Darlin' But Mine
EXTD=
EXTT0=
EXTT1=
EXTT2=
EXTT3=
EXTT4=
EXTT5=
EXTT6=
EXTT7=
EXTT8=
EXTT9=
EXTT10=
EXTT11=
EXTT12=
EXTT13=
EXTT14=
PLAYORDER=
